# xmcd
#
# Track frame offsets: 
#        182
#        10517
#        20710
#        33137
#        43917
#        54455
#        65685
#        83135
#        101260
#        114352
#        139467
#        153240
#        166012
#
# Disc length: 2514 seconds
#
# Revision: 6
# Processed by: cddbd v1.5.2PL0 Copyright (c) Steve Scherf et al.
# Submitted via: ExactAudioCopy v0.99pb5
#
DISCID=9b09d00d
DTITLE=Johnny Cash - American Recordings
DYEAR=1994
DGENRE=Country
TTITLE0=Delia's Gone
TTITLE1=Let the Train Blow the Whistle
TTITLE2=The Beast in Me
TTITLE3=Drive On
TTITLE4=Why Me Lord
TTITLE5=Thirteen
TTITLE6=Oh Bury Me Not
TTITLE7=Bird on a Wire
TTITLE8=Tennessee Stud
TTITLE9=Down There By the Train
TTITLE10=Redemption
TTITLE11=Like a Soldier
TTITLE12=The Man Who Couldn't Cry
EXTD=YEAR: 1994 ID3G:   2
EXTT0=
EXTT1=
EXTT2=
EXTT3=
EXTT4=
EXTT5=
EXTT6=
EXTT7=
EXTT8=
EXTT9=
EXTT10=
EXTT11=
EXTT12=
PLAYORDER=
